<?xml version="1.0" encoding="UTF-8"?> <svg xmlns="http://www.w3.org/2000/svg" xml:space="preserve" viewBox="0 0 512 512"> <path fill="#fff" d="M177.43 14.03C115.07 35.39 61.88 82.12 32.35 141.04c-10.32 20.36-17.78 42-22.22 64.37-11.32 55.62-3.44 114.83 22.22 165.57 16.63 33.11 40.57 62.5 69.53 85.44 27.38 21.79 59.2 37.85 93.04 46.88 42.58 11.47 88.02 11.18 131.02 1.43 38.85-8.89 75.55-27.52 104.79-54.47 30.96-28.53 53.04-65.94 64.8-106.22 12.76-44.01 14.48-90.89 6.45-135.9H261v99.92h139.48c-5.45 31.97-24.37 61.07-51.32 79.13-16.92 11.32-36.27 18.78-56.34 22.22-20.21 3.44-41 3.87-61.07-.14-20.5-4.01-40-12.62-57.05-24.66-27.24-19.07-48.02-47.16-58.63-78.56-10.89-31.97-11.04-67.66 0-99.63 7.6-22.51 20.36-43.44 37.13-60.35 20.64-21.22 47.45-36.27 76.41-42.43 24.8-5.3 50.89-4.3 75.12 3.01 20.64 6.31 39.57 17.49 55.19 32.4 15.77-15.63 31.39-31.39 47.16-47.02 8.17-8.46 16.92-16.49 24.94-25.23-23.8-22.08-51.89-39.85-82.43-51.03-54.76-20.52-116.83-20.95-172.16-1.74"></path> <path fill="#e94435" d="M177.43 14.03c55.33-19.21 117.41-18.78 172.45 1.58 30.53 11.18 58.49 28.96 82.43 51.03-8.03 8.6-16.63 16.77-24.94 25.23-15.77 15.63-31.39 31.39-47.16 47.02-15.63-14.91-34.55-26.23-55.19-32.4-24.23-7.31-50.32-8.31-75.12-3.01-28.96 6.16-55.76 21.36-76.41 42.43-16.77 16.92-29.53 37.85-37.13 60.35-27.95-21.65-55.91-43.44-83.86-65.08C61.88 82.12 115.07 35.39 177.43 14.03"></path> <path fill="#f8bb15" d="M10.13 205.41c4.44-22.36 12.04-44.01 22.22-64.37 27.95 21.65 55.91 43.44 83.86 65.08-11.04 31.97-10.89 67.66 0 99.63-27.95 21.65-55.91 43.44-83.86 65.08-25.66-50.45-33.54-109.8-22.22-165.42"></path> <path fill="#547dbe" d="M261.14 207.99h240.98c8.03 45.01 6.31 91.89-6.45 135.9-11.75 40.28-33.83 77.84-64.8 106.22-27.09-21.07-54.33-42.15-81.28-63.22 26.95-17.92 45.87-47.16 51.32-79.13H261.43c-.43-33.11-.29-66.37-.29-99.77"></path> <path fill="#34a751" d="M32.35 370.98c27.95-21.65 55.91-43.44 83.86-65.08 10.61 31.54 31.39 59.49 58.63 78.56 17.06 12.04 36.55 20.5 57.05 24.66 20.07 4.01 41 3.58 61.07.14s39.42-10.89 56.34-22.22c27.09 21.07 54.33 42.15 81.28 63.22-29.24 27.09-65.94 45.59-104.79 54.47-42.86 9.75-88.31 10.03-131.02-1.43-33.83-9.03-65.66-25.09-93.04-46.88-28.81-23.08-52.75-52.47-69.38-85.44"></path> </svg> 